<svg width="120" height="120" viewBox="0 0 120 120" fill="none" xmlns="http://www.w3.org/2000/svg">
<rect width="120" height="120" rx="5" fill="#080816"/>
<path d="M39.257 52H33.5793L33.6145 47.2539H39.257C40.4289 47.2539 41.4191 46.9727 42.2277 46.4102C43.048 45.8477 43.6691 45.0098 44.091 43.8965C44.5246 42.7715 44.7414 41.3887 44.7414 39.748V38.6406C44.7414 37.4102 44.6184 36.332 44.3723 35.4062C44.1379 34.4688 43.7863 33.6895 43.3176 33.0684C42.8488 32.4355 42.2629 31.9609 41.5598 31.6445C40.8684 31.3281 40.0715 31.1699 39.1691 31.1699H33.4738V26.4062H39.1691C40.9035 26.4062 42.4914 26.7051 43.9328 27.3027C45.3859 27.8887 46.6398 28.7324 47.6945 29.834C48.7609 30.9238 49.5812 32.2188 50.1555 33.7188C50.7414 35.207 51.0344 36.8594 51.0344 38.6758V39.748C51.0344 41.5527 50.7414 43.2051 50.1555 44.7051C49.5812 46.2051 48.7668 47.5 47.7121 48.5898C46.6574 49.6797 45.4094 50.5234 43.968 51.1211C42.5383 51.707 40.968 52 39.257 52ZM37.1125 26.4062V52H30.9426V26.4062H37.1125ZM76.9656 52H71.2879L71.323 47.2539H76.9656C78.1375 47.2539 79.1277 46.9727 79.9363 46.4102C80.7566 45.8477 81.3777 45.0098 81.7996 43.8965C82.2332 42.7715 82.45 41.3887 82.45 39.748V38.6406C82.45 37.4102 82.327 36.332 82.0809 35.4062C81.8465 34.4688 81.4949 33.6895 81.0262 33.0684C80.5574 32.4355 79.9715 31.9609 79.2684 31.6445C78.577 31.3281 77.7801 31.1699 76.8777 31.1699H71.1824V26.4062H76.8777C78.6121 26.4062 80.2 26.7051 81.6414 27.3027C83.0945 27.8887 84.3484 28.7324 85.4031 29.834C86.4695 30.9238 87.2898 32.2188 87.8641 33.7188C88.45 35.207 88.743 36.8594 88.743 38.6758V39.748C88.743 41.5527 88.45 43.2051 87.8641 44.7051C87.2898 46.2051 86.4754 47.5 85.4207 48.5898C84.366 49.6797 83.118 50.5234 81.6766 51.1211C80.2469 51.707 78.6766 52 76.9656 52ZM74.8211 26.4062V52H68.6512V26.4062H74.8211ZM44.7238 88.334H50.8762C50.7941 90.1152 50.3137 91.6855 49.4348 93.0449C48.5559 94.4043 47.3371 95.4648 45.7785 96.2266C44.2316 96.9766 42.4035 97.3516 40.2941 97.3516C38.5832 97.3516 37.0539 97.0645 35.7062 96.4902C34.3703 95.916 33.2336 95.0898 32.2961 94.0117C31.3703 92.9336 30.6613 91.627 30.1691 90.0918C29.6887 88.5566 29.4484 86.8281 29.4484 84.9062V83.5176C29.4484 81.5957 29.7004 79.8672 30.2043 78.332C30.7199 76.7852 31.4465 75.4727 32.384 74.3945C33.3332 73.3047 34.4699 72.4727 35.7941 71.8984C37.1184 71.3242 38.5891 71.0371 40.2062 71.0371C42.4328 71.0371 44.3137 71.4355 45.8488 72.2324C47.384 73.0293 48.5734 74.125 49.4172 75.5195C50.2609 76.9023 50.759 78.4785 50.9113 80.248H44.759C44.7355 79.2871 44.5715 78.4844 44.2668 77.8398C43.9621 77.1836 43.4816 76.6914 42.8254 76.3633C42.1691 76.0352 41.2961 75.8711 40.2062 75.8711C39.4445 75.8711 38.7824 76.0117 38.2199 76.293C37.6574 76.5742 37.1887 77.0195 36.8137 77.6289C36.4387 78.2383 36.1574 79.0293 35.9699 80.002C35.7941 80.9629 35.7062 82.123 35.7062 83.4824V84.9062C35.7062 86.2656 35.7883 87.4258 35.9523 88.3867C36.1164 89.3477 36.3801 90.1328 36.7434 90.7422C37.1066 91.3516 37.5754 91.8027 38.1496 92.0957C38.7355 92.377 39.4504 92.5176 40.2941 92.5176C41.2316 92.5176 42.0227 92.3711 42.6672 92.0781C43.3117 91.7734 43.8098 91.3164 44.1613 90.707C44.5129 90.0859 44.7004 89.2949 44.7238 88.334ZM79.0398 76.7852L72.7996 97H66.1727L75.577 71.4062H79.7781L79.0398 76.7852ZM84.2078 97L77.95 76.7852L77.1414 71.4062H81.3953L90.8523 97H84.2078ZM83.9617 87.4551V92.2188H70.8309V87.4551H83.9617Z" fill="white"/>
</svg>
